<svg id="Layer_1" data-name="Layer 1" xmlns="http://www.w3.org/2000/svg" viewBox="0 0 400 291.91">
  <defs>
    <style>
      .cls-1 {
        isolation: isolate;
      }

      .cls-2 {
        fill: #34495e;
      }

      .cls-3, .cls-4 {
        fill: none;
        stroke-width: 1.5px;
      }

      .cls-3, .cls-6 {
        stroke: #34495e;
      }

      .cls-4 {
        stroke: #d4d7d9;
      }

      .cls-5 {
        fill: #9a9dab;
      }

      .cls-6 {
        fill: #1abc9c;
        stroke-width: 2px;
      }
    </style>
  </defs>
  <title>1405lesson_hist_children</title>
  <g class="cls-1">
    <path class="cls-2" d="M104.28418,19.8501V7.78174h1.63818l6.33936,9.47558V7.78174h1.53076V19.8501H112.1543l-6.33887-9.4834v9.4834Z"/>
    <path class="cls-2" d="M122.01709,19.8501V18.56592a3.19916,3.19916,0,0,1-2.77441,1.48144,3.53947,3.53947,0,0,1-1.44483-.2959,2.37963,2.37963,0,0,1-.99609-.74511,2.78948,2.78948,0,0,1-.457-1.09864,7.51814,7.51814,0,0,1-.09034-1.38378v-5.417h1.48145v4.84961a8.6072,8.6072,0,0,0,.09082,1.56348,1.54421,1.54421,0,0,0,.59277.918,1.8336,1.8336,0,0,0,1.11963.334,2.44357,2.44357,0,0,0,1.25147-.34179,1.90183,1.90183,0,0,0,.82715-.93067,4.67513,4.67513,0,0,0,.24267-1.708V11.10693h1.48194V19.8501Z"/>
    <path class="cls-2" d="M125.66357,19.8501V11.10693h1.32569V12.3335a3.07879,3.07879,0,0,1,2.65039-1.42383,2.87974,2.87974,0,0,1,1.59326.40332,2.16356,2.16356,0,0,1,.87647,1.12793,3.14038,3.14038,0,0,1,2.70068-1.53125,2.66185,2.66185,0,0,1,2.00049.7207,3.07824,3.07824,0,0,1,.6997,2.21875v6.001h-1.47363V14.34229a4.06654,4.06654,0,0,0-.144-1.28028,1.24309,1.24309,0,0,0-.523-.6289,1.632,1.632,0,0,0-.88916-.23926,2.07185,2.07185,0,0,0-1.53125.61328,2.70184,2.70184,0,0,0-.60889,1.96387v5.0791H130.8584V14.16943a2.50032,2.50032,0,0,0-.36231-1.48144,1.37272,1.37272,0,0,0-1.18554-.49414,2.16058,2.16058,0,0,0-1.15674.3291,1.86894,1.86894,0,0,0-.76953.96387,5.415,5.415,0,0,0-.23877,1.82714V19.8501Z"/>
    <path class="cls-2" d="M141.0752,19.8501h-1.375V7.78174h1.48193V12.0874a2.93155,2.93155,0,0,1,2.39551-1.17773,3.67009,3.67009,0,0,1,1.52734.32519,3.11965,3.11965,0,0,1,1.18555.91407,4.41763,4.41763,0,0,1,.72851,1.41992,5.86879,5.86879,0,0,1,.26319,1.77832,4.99139,4.99139,0,0,1-1.11133,3.47363,3.47336,3.47336,0,0,1-2.667,1.22656,2.78356,2.78356,0,0,1-2.42871-1.292Zm-.01661-4.4375a4.5352,4.5352,0,0,0,.42823,2.27246,2.11788,2.11788,0,0,0,3.57275.30078,3.83493,3.83493,0,0,0,.708-2.51563,3.90267,3.90267,0,0,0-.6792-2.52734,2.06819,2.06819,0,0,0-1.64209-.81445,2.13161,2.13161,0,0,0-1.67969.84375A3.70228,3.70228,0,0,0,141.05859,15.4126Z"/>
    <path class="cls-2" d="M155.06982,17.03467l1.53125.18945a3.73468,3.73468,0,0,1-1.34179,2.083,4.54852,4.54852,0,0,1-5.54444-.44043,4.6183,4.6183,0,0,1-1.124-3.31348,4.829,4.829,0,0,1,1.13623-3.4248,3.84494,3.84494,0,0,1,2.94727-1.21875,3.74,3.74,0,0,1,2.86474,1.19336,4.74321,4.74321,0,0,1,1.11133,3.35937c0,.08789-.00244.21973-.00781.39453h-6.52051a3.36152,3.36152,0,0,0,.81543,2.207,2.42784,2.42784,0,0,0,1.82764.76563,2.26358,2.26358,0,0,0,1.39111-.42871A2.84071,2.84071,0,0,0,155.06982,17.03467Zm-4.86523-2.39551h4.88184a2.96747,2.96747,0,0,0-.55957-1.65527,2.27217,2.27217,0,0,0-1.83594-.85547,2.356,2.356,0,0,0-1.7168.68262A2.70834,2.70834,0,0,0,150.20459,14.63916Z"/>
    <path class="cls-2" d="M158.44531,19.8501V11.10693h1.334v1.32618a3.625,3.625,0,0,1,.94238-1.22754,1.64711,1.64711,0,0,1,.95117-.2959,2.8916,2.8916,0,0,1,1.52295.47754l-.51074,1.375a2.12138,2.12138,0,0,0-1.08643-.32129,1.41267,1.41267,0,0,0-.87256.292,1.58581,1.58581,0,0,0-.55175.81152,5.76926,5.76926,0,0,0-.24707,1.72852V19.8501Z"/>
    <path class="cls-2" d="M168.209,15.479a4.5055,4.5055,0,0,1,1.35059-3.59765,4.06748,4.06748,0,0,1,2.74951-.97168,3.92189,3.92189,0,0,1,2.94727,1.18164,4.49289,4.49289,0,0,1,1.144,3.26367,5.77974,5.77974,0,0,1-.50635,2.65527,3.58163,3.58163,0,0,1-1.47363,1.502,4.28279,4.28279,0,0,1-2.11133.53515,3.92759,3.92759,0,0,1-2.96777-1.17675A4.70116,4.70116,0,0,1,168.209,15.479Zm1.52344,0a3.72391,3.72391,0,0,0,.73242,2.51465,2.43945,2.43945,0,0,0,3.68018-.0039,3.81271,3.81271,0,0,0,.73242-2.56055,3.61067,3.61067,0,0,0-.73681-2.457,2.4421,2.4421,0,0,0-3.67579-.00391A3.70569,3.70569,0,0,0,169.73242,15.479Z"/>
    <path class="cls-2" d="M178.49121,19.8501V12.26025h-1.30908V11.10693h1.30908v-.92968a4.0868,4.0868,0,0,1,.15625-1.30957,1.89556,1.89556,0,0,1,.75342-.9336,2.71063,2.71063,0,0,1,1.51074-.3584,7.18766,7.18766,0,0,1,1.38281.14844l-.22216,1.292a4.98778,4.98778,0,0,0-.87256-.082,1.29724,1.29724,0,0,0-.95508.28809,1.56272,1.56272,0,0,0-.27979,1.07812v.80664H181.669v1.15332h-1.70411V19.8501Z"/>
    <path class="cls-2" d="M193.21094,16.648l1.457.18945a3.78084,3.78084,0,0,1-1.22217,2.3584,3.56557,3.56557,0,0,1-2.4165.85156,3.75261,3.75261,0,0,1-2.88526-1.17285,4.75917,4.75917,0,0,1-1.09082-3.36328,6.08312,6.08312,0,0,1,.46924-2.47754,3.26606,3.26606,0,0,1,1.42822-1.59277,4.232,4.232,0,0,1,2.08692-.53125,3.62616,3.62616,0,0,1,2.32959.7207,3.30127,3.30127,0,0,1,1.16113,2.0459l-1.44092.22168a2.39033,2.39033,0,0,0-.72851-1.3252,1.88242,1.88242,0,0,0-1.26368-.44433,2.2994,2.2994,0,0,0-1.81933.80273,3.8111,3.8111,0,0,0-.69971,2.53906,3.94081,3.94081,0,0,0,.67481,2.56055,2.19808,2.19808,0,0,0,1.76172.79883,2.0789,2.0789,0,0,0,1.45751-.53516A2.66028,2.66028,0,0,0,193.21094,16.648Z"/>
    <path class="cls-2" d="M195.93555,19.8501V7.78174h1.48193v4.33008a3.30862,3.30862,0,0,1,2.61768-1.20215,3.52984,3.52984,0,0,1,1.6875.38281,2.24673,2.24673,0,0,1,1.02539,1.05762,4.893,4.893,0,0,1,.30859,1.96v5.54h-1.48242v-5.54a2.29439,2.29439,0,0,0-.48047-1.61817A1.79151,1.79151,0,0,0,199.731,12.186a2.39615,2.39615,0,0,0-1.23926.34179,1.928,1.928,0,0,0-.82715.92578,4.25554,4.25554,0,0,0-.24707,1.61328V19.8501Z"/>
    <path class="cls-2" d="M205.32031,9.48584V7.78174h1.48242v1.7041Zm0,10.36426V11.10693h1.48242V19.8501Z"/>
    <path class="cls-2" d="M209.02539,19.8501V7.78174h1.48145V19.8501Z"/>
    <path class="cls-2" d="M218.47656,19.8501V18.74658a2.72066,2.72066,0,0,1-2.44531,1.30078,3.42608,3.42608,0,0,1-1.92285-.57617,3.7816,3.7816,0,0,1-1.3584-1.60937,5.57283,5.57283,0,0,1-.48145-2.375,6.2162,6.2162,0,0,1,.43653-2.375,3.43424,3.43424,0,0,1,1.30859-1.63379,3.49949,3.49949,0,0,1,1.95117-.56836,2.92387,2.92387,0,0,1,1.40821.333,2.95373,2.95373,0,0,1,1.0039.86914V7.78174h1.47364V19.8501ZM213.791,15.48682a3.79066,3.79066,0,0,0,.709,2.51074,2.13406,2.13406,0,0,0,1.6709.832,2.09316,2.09316,0,0,0,1.65039-.79492A3.65971,3.65971,0,0,0,218.5,15.61084a4.11111,4.11111,0,0,0-.69141-2.63477,2.12751,2.12751,0,0,0-1.70312-.83984,2.05337,2.05337,0,0,0-1.65039.80664A3.97849,3.97849,0,0,0,213.791,15.48682Z"/>
    <path class="cls-2" d="M222.16406,19.8501V11.10693h1.334v1.32618a3.625,3.625,0,0,1,.94238-1.22754,1.646,1.646,0,0,1,.95117-.2959,2.88873,2.88873,0,0,1,1.52246.47754l-.50976,1.375a2.12569,2.12569,0,0,0-1.08692-.32129,1.41128,1.41128,0,0,0-.87207.292,1.58732,1.58732,0,0,0-.55273.81152,5.78535,5.78535,0,0,0-.2461,1.72852V19.8501Z"/>
    <path class="cls-2" d="M233.7793,17.03467l1.53125.18945a3.72455,3.72455,0,0,1-1.3418,2.083,4.54781,4.54781,0,0,1-5.54395-.44043,4.6183,4.6183,0,0,1-1.124-3.31348,4.827,4.827,0,0,1,1.13672-3.4248,3.84348,3.84348,0,0,1,2.94727-1.21875A3.74114,3.74114,0,0,1,234.249,12.103a4.74321,4.74321,0,0,1,1.11133,3.35937c0,.08789-.00293.21973-.00781.39453H228.832a3.35645,3.35645,0,0,0,.81543,2.207,2.42752,2.42752,0,0,0,1.82715.76563,2.264,2.264,0,0,0,1.3916-.42871A2.83687,2.83687,0,0,0,233.7793,17.03467Zm-4.86524-2.39551h4.88282a2.96732,2.96732,0,0,0-.56055-1.65527,2.27151,2.27151,0,0,0-1.83594-.85547,2.35919,2.35919,0,0,0-1.7168.68262A2.71286,2.71286,0,0,0,228.91406,14.63916Z"/>
    <path class="cls-2" d="M237.17188,19.8501V11.10693h1.334V12.3501a3.1425,3.1425,0,0,1,2.78223-1.44043,3.65264,3.65264,0,0,1,1.45312.28418,2.28281,2.28281,0,0,1,.99219.74511,2.85713,2.85713,0,0,1,.46094,1.09473,8.5163,8.5163,0,0,1,.082,1.44043v5.376h-1.48145V14.53174a3.9933,3.9933,0,0,0-.17383-1.35449,1.41974,1.41974,0,0,0-.61328-.71582,1.95185,1.95185,0,0,0-1.0332-.26758,2.39665,2.39665,0,0,0-1.63281.60058,2.96439,2.96439,0,0,0-.6875,2.28125V19.8501Z"/>
    <path class="cls-2" d="M251.24121,9.48584V7.78174h1.48145v1.7041Zm0,10.36426V11.10693h1.48145V19.8501Z"/>
    <path class="cls-2" d="M254.97852,19.8501V11.10693h1.334V12.3501a3.1425,3.1425,0,0,1,2.78223-1.44043,3.65264,3.65264,0,0,1,1.45312.28418,2.28281,2.28281,0,0,1,.99219.74511,2.85713,2.85713,0,0,1,.46094,1.09473,8.5163,8.5163,0,0,1,.082,1.44043v5.376h-1.48145V14.53174a3.9933,3.9933,0,0,0-.17383-1.35449,1.41969,1.41969,0,0,0-.61328-.71582,1.95185,1.95185,0,0,0-1.0332-.26758,2.39665,2.39665,0,0,0-1.63281.60058,2.96439,2.96439,0,0,0-.6875,2.28125V19.8501Z"/>
    <path class="cls-2" d="M274.74414,18.772a5.51021,5.51021,0,0,1-1.584.98731,4.57584,4.57584,0,0,1-1.63477.28808,3.18366,3.18366,0,0,1-2.21484-.70312,2.32527,2.32527,0,0,1-.77344-1.79883A2.43842,2.43842,0,0,1,269.5957,15.52a3.5939,3.5939,0,0,1,1.06641-.48633,10.65949,10.65949,0,0,1,1.31641-.22168,13.55825,13.55825,0,0,0,2.64257-.51074c.00586-.20313.00782-.332.00782-.38672a1.63589,1.63589,0,0,0-.41993-1.27637,2.48287,2.48287,0,0,0-1.6875-.502,2.615,2.615,0,0,0-1.543.36621,2.23374,2.23374,0,0,0-.73633,1.29688l-1.44922-.19727a3.57314,3.57314,0,0,1,.65039-1.50293,2.85248,2.85248,0,0,1,1.30859-.88086,5.83271,5.83271,0,0,1,1.98438-.30859,5.23942,5.23942,0,0,1,1.81836.26367,2.39747,2.39747,0,0,1,1.02929.66211,2.33224,2.33224,0,0,1,.46094,1.00879,8.293,8.293,0,0,1,.07422,1.36621V16.187a20.61457,20.61457,0,0,0,.0957,2.61328,3.28344,3.28344,0,0,0,.374,1.04981H275.041A3.15353,3.15353,0,0,1,274.74414,18.772Zm-.12305-3.30957a10.8486,10.8486,0,0,1-2.41992.55957,5.56209,5.56209,0,0,0-1.293.29688,1.28065,1.28065,0,0,0-.584.48144,1.3093,1.3093,0,0,0,.24219,1.69141,1.93006,1.93006,0,0,0,1.31347.39551,3.04918,3.04918,0,0,0,1.52246-.375,2.30677,2.30677,0,0,0,.98047-1.02442,3.59948,3.59948,0,0,0,.23828-1.48242Z"/>
    <path class="cls-2" d="M283.45508,19.8501V12.26025h-1.30957V11.10693h1.30957v-.92968a4.07278,4.07278,0,0,1,.15625-1.30957,1.89192,1.89192,0,0,1,.75293-.9336,2.71063,2.71063,0,0,1,1.51074-.3584,7.18766,7.18766,0,0,1,1.38281.14844l-.22265,1.292a4.97813,4.97813,0,0,0-.87207-.082,1.29724,1.29724,0,0,0-.95508.28809,1.56241,1.56241,0,0,0-.28028,1.07812v.80664h1.70508v1.15332h-1.70508V19.8501Z"/>
    <path class="cls-2" d="M293.49023,18.772a5.52668,5.52668,0,0,1-1.585.98731,4.57425,4.57425,0,0,1-1.63379.28808,3.18035,3.18035,0,0,1-2.21484-.70312,2.32531,2.32531,0,0,1-.77344-1.79883,2.39916,2.39916,0,0,1,.291-1.17383,2.43579,2.43579,0,0,1,.76562-.85156,3.63954,3.63954,0,0,1,1.06641-.48633,10.75034,10.75034,0,0,1,1.31738-.22168,13.55823,13.55823,0,0,0,2.64258-.51074c.00488-.20313.00879-.332.00879-.38672a1.6395,1.6395,0,0,0-.41992-1.27637,2.48462,2.48462,0,0,0-1.6875-.502,2.61844,2.61844,0,0,0-1.54395.36621,2.23962,2.23962,0,0,0-.7373,1.29688l-1.44922-.19727a3.62284,3.62284,0,0,1,.65039-1.50293,2.86093,2.86093,0,0,1,1.30957-.88086,5.83076,5.83076,0,0,1,1.9834-.30859,5.25138,5.25138,0,0,1,1.82031.26367,2.40961,2.40961,0,0,1,1.0293.66211,2.34358,2.34358,0,0,1,.46094,1.00879,8.4087,8.4087,0,0,1,.07421,1.36621V16.187a21.1754,21.1754,0,0,0,.09375,2.61328,3.28586,3.28586,0,0,0,.375,1.04981h-1.54785A3.13181,3.13181,0,0,1,293.49023,18.772Zm-.124-3.30957a10.84609,10.84609,0,0,1-2.4209.55957,5.57671,5.57671,0,0,0-1.292.29688,1.28325,1.28325,0,0,0-.585.48144,1.31022,1.31022,0,0,0,.24414,1.69141,1.92733,1.92733,0,0,0,1.3125.39551,3.05815,3.05815,0,0,0,1.52344-.375,2.30751,2.30751,0,0,0,.97851-1.02442,3.56488,3.56488,0,0,0,.23926-1.48242Z"/>
    <path class="cls-2" d="M297.16211,19.8501V11.10693h1.32519V12.3335a3.12317,3.12317,0,0,1,1.09473-1.03321,3.08511,3.08511,0,0,1,1.55567-.39062,2.878,2.878,0,0,1,1.59277.40332,2.16435,2.16435,0,0,1,.87695,1.12793,3.14,3.14,0,0,1,2.70117-1.53125,2.6614,2.6614,0,0,1,2,.7207,3.076,3.076,0,0,1,.69922,2.21875v6.001h-1.47265V14.34229a4.06328,4.06328,0,0,0-.14453-1.28028,1.23932,1.23932,0,0,0-.52344-.6289,1.63028,1.63028,0,0,0-.88867-.23926,2.07108,2.07108,0,0,0-1.53125.61328,2.70186,2.70186,0,0,0-.60938,1.96387v5.0791h-1.48144V14.16943a2.50032,2.50032,0,0,0-.36231-1.48144,1.37333,1.37333,0,0,0-1.18555-.49414,2.15775,2.15775,0,0,0-1.15625.3291,1.86185,1.86185,0,0,0-.76953.96387,5.38835,5.38835,0,0,0-.23926,1.82714V19.8501Z"/>
    <path class="cls-2" d="M311.21484,9.48584V7.78174h1.48145v1.7041Zm0,10.36426V11.10693h1.48145V19.8501Z"/>
    <path class="cls-2" d="M314.919,19.8501V7.78174h1.48144V19.8501Z"/>
    <path class="cls-2" d="M318.63086,23.21729l-.16406-1.39161a3.30187,3.30187,0,0,0,.84765.13184,1.62026,1.62026,0,0,0,.791-.165,1.33656,1.33656,0,0,0,.48535-.46094A7.25381,7.25381,0,0,0,321.043,20.229c.02734-.083.07226-.20312.13281-.3623l-3.31836-8.75977h1.59766l1.81836,5.06348q.35449.9624.63476,2.02539a19.77538,19.77538,0,0,1,.60938-1.99219l1.86816-5.09668h1.48145l-3.3252,8.89161a17.49833,17.49833,0,0,1-.83105,1.98339,2.925,2.925,0,0,1-.90625,1.07422,2.132,2.132,0,0,1-1.21875.3418A2.98662,2.98662,0,0,1,318.63086,23.21729Z"/>
  </g>
  <g class="cls-1">
    <path class="cls-2" d="M171.48047,283.16992v-7.43066h1.00879l3.90283,5.834v-5.834h.94238v7.43066h-1.0083l-3.90283-5.83887v5.83887Z"/>
    <path class="cls-2" d="M182.398,283.16992v-.791a1.97031,1.97031,0,0,1-1.708.91308,2.18561,2.18561,0,0,1-.88965-.18261,1.46459,1.46459,0,0,1-.61328-.459,1.72265,1.72265,0,0,1-.28125-.67676,4.63723,4.63723,0,0,1-.05566-.85156v-3.335h.91211v2.98535a5.32181,5.32181,0,0,0,.05566.96289.95116.95116,0,0,0,.36524.56543,1.13024,1.13024,0,0,0,.689.20508,1.50609,1.50609,0,0,0,.77051-.21,1.17011,1.17011,0,0,0,.50928-.57324,2.87179,2.87179,0,0,0,.1499-1.05176v-2.88379h.91211v5.38281Z"/>
    <path class="cls-2" d="M184.64307,283.16992v-5.38281h.81591v.75586a1.92712,1.92712,0,0,1,.67432-.63672,1.89625,1.89625,0,0,1,.958-.24023,1.76613,1.76613,0,0,1,.98047.248,1.333,1.333,0,0,1,.54.69434,1.93119,1.93119,0,0,1,1.66211-.94238,1.63769,1.63769,0,0,1,1.23193.44336,1.8954,1.8954,0,0,1,.43066,1.36523v3.69531h-.90722V279.7793a2.49378,2.49378,0,0,0-.08887-.78809.76133.76133,0,0,0-.32178-.38769.999.999,0,0,0-.54736-.14747,1.27251,1.27251,0,0,0-.94238.37793,1.66106,1.66106,0,0,0-.37549,1.209v3.12695h-.91211v-3.49707a1.53529,1.53529,0,0,0-.22315-.91211.8428.8428,0,0,0-.72949-.30469,1.33121,1.33121,0,0,0-.7124.20313,1.14827,1.14827,0,0,0-.47363.59277,3.33776,3.33776,0,0,0-.147,1.125v2.793Z"/>
    <path class="cls-2" d="M194.13086,283.16992h-.84619v-7.43066h.91211v2.65137a1.80478,1.80478,0,0,1,1.4751-.72461,2.25219,2.25219,0,0,1,.93994.20019,1.9063,1.9063,0,0,1,.73.5625,2.72446,2.72446,0,0,1,.44873.874,3.61305,3.61305,0,0,1,.16211,1.09473,3.07306,3.07306,0,0,1-.68409,2.13867,2.14062,2.14062,0,0,1-1.64257.75586,1.71478,1.71478,0,0,1-1.49512-.7959Zm-.00977-2.73144a2.79092,2.79092,0,0,0,.26319,1.39843,1.30418,1.30418,0,0,0,2.1997.18457,2.35889,2.35889,0,0,0,.436-1.54785,2.39872,2.39872,0,0,0-.418-1.55566,1.273,1.273,0,0,0-1.01123-.502,1.31118,1.31118,0,0,0-1.03418.51953A2.27882,2.27882,0,0,0,194.12109,280.43848Z"/>
    <path class="cls-2" d="M202.74805,281.43652l.94238.11621a2.296,2.296,0,0,1-.82617,1.28223,2.79723,2.79723,0,0,1-3.41406-.27051,2.84421,2.84421,0,0,1-.6919-2.04,2.97443,2.97443,0,0,1,.69971-2.10839,2.368,2.368,0,0,1,1.81445-.75,2.30266,2.30266,0,0,1,1.76367.73437,2.92223,2.92223,0,0,1,.68457,2.06836c0,.05371-.00195.13477-.00488.24316h-4.01465a2.06932,2.06932,0,0,0,.502,1.3584,1.492,1.492,0,0,0,1.125.47071,1.39333,1.39333,0,0,0,.85644-.2627A1.74994,1.74994,0,0,0,202.74805,281.43652Zm-2.9961-1.47461h3.00586a1.82124,1.82124,0,0,0-.34472-1.01855,1.3979,1.3979,0,0,0-1.12989-.52734,1.44586,1.44586,0,0,0-1.05713.42089A1.66308,1.66308,0,0,0,199.752,279.96191Z"/>
    <path class="cls-2" d="M204.82617,283.16992v-5.38281h.82031v.81641a2.23667,2.23667,0,0,1,.58106-.75586,1.01333,1.01333,0,0,1,.585-.18164,1.77519,1.77519,0,0,1,.9375.29394l-.31445.8457a1.30134,1.30134,0,0,0-.66895-.19726.86821.86821,0,0,0-.53711.17969.97749.97749,0,0,0-.33984.499,3.58543,3.58543,0,0,0-.15137,1.06445v2.81836Z"/>
    <path class="cls-2" d="M210.83691,280.47852a2.7716,2.7716,0,0,1,.83106-2.21485,2.50554,2.50554,0,0,1,1.69238-.59765,2.41585,2.41585,0,0,1,1.81445.72656,2.76879,2.76879,0,0,1,.70508,2.00976,3.56866,3.56866,0,0,1-.31152,1.63477,2.2084,2.2084,0,0,1-.90723.9248,2.64464,2.64464,0,0,1-1.30078.33008,2.42055,2.42055,0,0,1-1.82715-.72558A2.89569,2.89569,0,0,1,210.83691,280.47852Zm.9375,0a2.293,2.293,0,0,0,.45118,1.54882,1.5031,1.5031,0,0,0,2.26562-.00293,2.34675,2.34675,0,0,0,.45117-1.57617,2.22067,2.22067,0,0,0-.4541-1.51269,1.50364,1.50364,0,0,0-2.26269-.00293A2.28276,2.28276,0,0,0,211.77441,280.47852Z"/>
    <path class="cls-2" d="M217.167,283.16992v-4.67285h-.80566v-.71h.80566v-.57227a2.49426,2.49426,0,0,1,.09668-.80566,1.16586,1.16586,0,0,1,.46387-.57617,1.67366,1.67366,0,0,1,.92969-.21973,4.49069,4.49069,0,0,1,.85156.09082l-.13672.7959a3.02538,3.02538,0,0,0-.53711-.05078.79836.79836,0,0,0-.58789.17773.95822.95822,0,0,0-.17285.66407v.49609h1.04883v.71h-1.04883v4.67285Z"/>
    <path class="cls-2" d="M226.22949,281.19824l.89649.11621a2.32067,2.32067,0,0,1-.75293,1.45215,2.18754,2.18754,0,0,1-1.48731.52539,2.31249,2.31249,0,0,1-1.77636-.72265,2.93271,2.93271,0,0,1-.67188-2.07032,3.74866,3.74866,0,0,1,.28906-1.52539,2.017,2.017,0,0,1,.87989-.98144,2.60747,2.60747,0,0,1,1.28418-.32617,2.2308,2.2308,0,0,1,1.43457.44336,2.02964,2.02964,0,0,1,.71484,1.25976l-.88672.13672a1.47374,1.47374,0,0,0-.44922-.81641,1.15747,1.15747,0,0,0-.77734-.27343,1.41332,1.41332,0,0,0-1.12012.49414,2.3456,2.3456,0,0,0-.43066,1.56347,2.42469,2.42469,0,0,0,.415,1.57617,1.35167,1.35167,0,0,0,1.085.49122,1.27458,1.27458,0,0,0,.89648-.32911A1.63538,1.63538,0,0,0,226.22949,281.19824Z"/>
    <path class="cls-2" d="M227.90625,283.16992v-7.43066h.91309v2.666a2.0376,2.0376,0,0,1,1.61132-.73925,2.17294,2.17294,0,0,1,1.03907.23535,1.38414,1.38414,0,0,1,.63086.65136,2.99626,2.99626,0,0,1,.19043,1.20606v3.41113h-.91211v-3.41113a1.41219,1.41219,0,0,0-.29688-.99609,1.10508,1.10508,0,0,0-.83887-.31153,1.48353,1.48353,0,0,0-.76269.21,1.19446,1.19446,0,0,0-.50977.57032,2.63985,2.63985,0,0,0-.15136.99414v2.94433Z"/>
    <path class="cls-2" d="M233.68457,276.78906v-1.0498h.91211v1.0498Zm0,6.38086v-5.38281h.91211v5.38281Z"/>
    <path class="cls-2" d="M235.96582,283.16992v-7.43066h.91211v7.43066Z"/>
    <path class="cls-2" d="M241.78418,283.16992v-.67871a1.67716,1.67716,0,0,1-1.50586.80078,2.11012,2.11012,0,0,1-1.18262-.35547,2.33325,2.33325,0,0,1-.83691-.99023,3.436,3.436,0,0,1-.2959-1.46289,3.81433,3.81433,0,0,1,.26856-1.46192,2.11562,2.11562,0,0,1,.80566-1.00585,2.15345,2.15345,0,0,1,1.20117-.34961,1.79352,1.79352,0,0,1,.86621.20507,1.82043,1.82043,0,0,1,.61914.53418v-2.666h.90723v7.43066Zm-2.88379-2.68652a2.33426,2.33426,0,0,0,.43555,1.5459,1.31367,1.31367,0,0,0,1.02929.51172,1.28772,1.28772,0,0,0,1.01563-.48829,2.25384,2.25384,0,0,0,.418-1.49316,2.53034,2.53034,0,0,0-.42578-1.62207,1.30687,1.30687,0,0,0-1.04883-.5166,1.26625,1.26625,0,0,0-1.0166.49707A2.45267,2.45267,0,0,0,238.90039,280.4834Z"/>
    <path class="cls-2" d="M244.05469,283.16992v-5.38281h.82129v.81641a2.22442,2.22442,0,0,1,.58007-.75586,1.01857,1.01857,0,0,1,.58594-.18164,1.78038,1.78038,0,0,1,.9375.29394l-.31445.8457a1.304,1.304,0,0,0-.66895-.19726.86624.86624,0,0,0-.53711.17969.97166.97166,0,0,0-.33984.499,3.55383,3.55383,0,0,0-.15234,1.06445v2.81836Z"/>
    <path class="cls-2" d="M251.20605,281.43652l.94239.11621a2.296,2.296,0,0,1-.82617,1.28223,2.79582,2.79582,0,0,1-3.41309-.27051,2.8444,2.8444,0,0,1-.69238-2.04,2.97243,2.97243,0,0,1,.70019-2.10839,2.3673,2.3673,0,0,1,1.81446-.75,2.30269,2.30269,0,0,1,1.76367.73437,2.92228,2.92228,0,0,1,.68457,2.06836q0,.08057-.00586.24316h-4.01367a2.06683,2.06683,0,0,0,.502,1.3584,1.492,1.492,0,0,0,1.125.47071,1.3953,1.3953,0,0,0,.85644-.2627A1.75565,1.75565,0,0,0,251.20605,281.43652Zm-2.99511-1.47461h3.00488a1.8138,1.8138,0,0,0-.34473-1.01855,1.39655,1.39655,0,0,0-1.12988-.52734,1.44552,1.44552,0,0,0-1.05664.42089A1.66486,1.66486,0,0,0,248.21094,279.96191Z"/>
    <path class="cls-2" d="M253.294,283.16992v-5.38281h.82128v.76562a1.93421,1.93421,0,0,1,1.7129-.88671,2.23192,2.23192,0,0,1,.89453.1748,1.41167,1.41167,0,0,1,.61132.458,1.76159,1.76159,0,0,1,.28321.6748,5.1721,5.1721,0,0,1,.05078.88672v3.30957h-.91211v-3.27441a2.44452,2.44452,0,0,0-.10645-.833.87064.87064,0,0,0-.37695-.44141,1.21,1.21,0,0,0-.63672-.165,1.48039,1.48039,0,0,0-1.00586.37012,1.82627,1.82627,0,0,0-.42285,1.4043v2.93945Z"/>
  </g>
  <g class="cls-1">
    <path class="cls-2" d="M61.98,179.69922H54.54932v-1.00781l5.834-3.90332h-5.834v-.94239H61.98v1.00782l-5.83887,3.90332H61.98Z"/>
    <path class="cls-2" d="M61.98,168.78223h-.791a1.97028,1.97028,0,0,1,.91309,1.708,2.18377,2.18377,0,0,1-.18262.88965,1.46758,1.46758,0,0,1-.459.61328,1.70832,1.70832,0,0,1-.67676.28125,4.637,4.637,0,0,1-.85156.05567h-3.335V171.418h2.98535a5.32151,5.32151,0,0,0,.96289-.05567.949.949,0,0,0,.56543-.36523,1.12879,1.12879,0,0,0,.20508-.68848,1.50955,1.50955,0,0,0-.21-.77148,1.17139,1.17139,0,0,0-.57325-.50879,2.87312,2.87312,0,0,0-1.05175-.14941H56.59717v-.91211H61.98Z"/>
    <path class="cls-2" d="M61.98,166.53711H56.59717v-.81641H57.353a1.91728,1.91728,0,0,1-.63672-.67382,1.89629,1.89629,0,0,1-.24024-.958,1.76611,1.76611,0,0,1,.248-.98047,1.33785,1.33785,0,0,1,.69434-.54,1.93179,1.93179,0,0,1-.94239-1.66211,1.6389,1.6389,0,0,1,.44336-1.23242,1.89531,1.89531,0,0,1,1.36524-.42969H61.98v.90625H58.58936a2.47293,2.47293,0,0,0-.78809.08984.76046.76046,0,0,0-.3877.32129.99961.99961,0,0,0-.14746.54786,1.27108,1.27108,0,0,0,.37793.9414,1.65894,1.65894,0,0,0,1.209.376H61.98v.91211H58.48291a1.5316,1.5316,0,0,0-.91211.22363.84089.84089,0,0,0-.30469.72852,1.33164,1.33164,0,0,0,.20313.71289,1.14828,1.14828,0,0,0,.59277.47363,3.32353,3.32353,0,0,0,1.125.14746H61.98Z"/>
    <path class="cls-2" d="M61.98,157.04883v.84668H54.54932v-.91211h2.65136a1.80572,1.80572,0,0,1-.72461-1.47559,2.25156,2.25156,0,0,1,.2002-.93945,1.91156,1.91156,0,0,1,.5625-.73047,2.73336,2.73336,0,0,1,.874-.44824,3.59789,3.59789,0,0,1,1.09473-.16211,3.06855,3.06855,0,0,1,2.13867.68457,2.13991,2.13991,0,0,1,.75586,1.64258,1.71316,1.71316,0,0,1-.7959,1.49414Zm-2.73144.00976a2.79176,2.79176,0,0,0,1.39843-.26269,1.30464,1.30464,0,0,0,.18457-2.2002,2.3617,2.3617,0,0,0-1.54785-.43554,2.39583,2.39583,0,0,0-1.55566.418,1.27387,1.27387,0,0,0-.502,1.01171,1.30939,1.30939,0,0,0,.51954,1.03321A2.27615,2.27615,0,0,0,59.24854,157.05859Z"/>
    <path class="cls-2" d="M60.24658,148.43262l.11621-.94239a2.296,2.296,0,0,1,1.28223.82618,2.79723,2.79723,0,0,1-.27051,3.41406,2.844,2.844,0,0,1-2.04.69141,2.97651,2.97651,0,0,1-2.1084-.69922,2.37021,2.37021,0,0,1-.75-1.81446,2.29978,2.29978,0,0,1,.73438-1.76367,2.91815,2.91815,0,0,1,2.06836-.68555q.08057,0,.24316.00586v4.01368a2.06689,2.06689,0,0,0,1.3584-.502,1.49207,1.49207,0,0,0,.4707-1.125,1.39242,1.39242,0,0,0-.26269-.85547A1.75,1.75,0,0,0,60.24658,148.43262ZM58.772,151.42773v-3.00488a1.81385,1.81385,0,0,0-1.01855.34473,1.39788,1.39788,0,0,0-.52735,1.12988,1.44549,1.44549,0,0,0,.4209,1.05664A1.656,1.656,0,0,0,58.772,151.42773Z"/>
    <path class="cls-2" d="M61.98,146.35449H56.59717v-.8208h.8164a2.23074,2.23074,0,0,1-.75586-.58056,1.016,1.016,0,0,1-.18164-.58545,1.7778,1.7778,0,0,1,.294-.9375l.8457.31445a1.30263,1.30263,0,0,0-.19726.66894.86726.86726,0,0,0,.17968.53711.97465.97465,0,0,0,.499.33985,3.56972,3.56972,0,0,0,1.06445.15185H61.98Z"/>
    <path class="cls-2" d="M59.28857,140.34375a2.77322,2.77322,0,0,1-2.21484-.83105,2.506,2.506,0,0,1-.59766-1.69288,2.41589,2.41589,0,0,1,.72657-1.81445,2.76856,2.76856,0,0,1,2.00976-.70459,3.56241,3.56241,0,0,1,1.63477.31152,2.20561,2.20561,0,0,1,.9248.90723,2.64281,2.64281,0,0,1,.33008,1.30029,2.419,2.419,0,0,1-.72559,1.82715A2.89365,2.89365,0,0,1,59.28857,140.34375Zm0-.9375a2.293,2.293,0,0,0,1.54883-.45117,1.50313,1.50313,0,0,0-.00293-2.26563,2.34675,2.34675,0,0,0-1.57617-.45117,2.22319,2.22319,0,0,0-1.51269.45361,1.50419,1.50419,0,0,0-.00293,2.26319A2.2828,2.2828,0,0,0,59.28857,139.40625Z"/>
    <path class="cls-2" d="M61.98,134.01318H57.30713v.80616h-.71v-.80616H56.0249a2.49657,2.49657,0,0,1-.80566-.09619,1.16585,1.16585,0,0,1-.57617-.46386,1.6748,1.6748,0,0,1-.21973-.92969,4.48655,4.48655,0,0,1,.09082-.85156l.7959.13671a3.02555,3.02555,0,0,0-.05078.53711.79911.79911,0,0,0,.17773.58789.95841.95841,0,0,0,.66406.17237h.4961v-1.04883h.71V133.106H61.98Z"/>
    <path class="cls-2" d="M61.98,128.24561H57.30713v.80615h-.71v-.80615H56.0249a2.49652,2.49652,0,0,1-.80566-.0962,1.16579,1.16579,0,0,1-.57617-.46386,1.67478,1.67478,0,0,1-.21973-.92969,4.48655,4.48655,0,0,1,.09082-.85156l.7959.13672a3.02538,3.02538,0,0,0-.05078.53711.79914.79914,0,0,0,.17773.58789.95847.95847,0,0,0,.66406.17236h.4961v-1.04883h.71v1.04883H61.98Z"/>
    <path class="cls-2" d="M61.31592,122.06689a3.4006,3.4006,0,0,1,.6084.97608,2.82127,2.82127,0,0,1,.17773,1.00586,1.95549,1.95549,0,0,1-.43359,1.36328,1.43009,1.43009,0,0,1-1.10742.47656,1.4721,1.4721,0,0,1-.72266-.18017,1.487,1.487,0,0,1-.52442-.4712,2.21089,2.21089,0,0,1-.29882-.65625,6.42077,6.42077,0,0,1-.13672-.811,8.38577,8.38577,0,0,0-.31446-1.627c-.125-.00342-.2041-.00489-.23828-.00489a1.0044,1.0044,0,0,0-.78515.2583,1.52781,1.52781,0,0,0-.30957,1.03907,1.60963,1.60963,0,0,0,.22558.95019,1.37426,1.37426,0,0,0,.79785.45362l-.12109.89209a2.20373,2.20373,0,0,1-.9248-.4004,1.75328,1.75328,0,0,1-.543-.80566,3.61492,3.61492,0,0,1-.18946-1.22168,3.2268,3.2268,0,0,1,.16211-1.12012,1.474,1.474,0,0,1,.40821-.6333,1.42857,1.42857,0,0,1,.62011-.28418,5.16707,5.16707,0,0,1,.8418-.04541h1.21582a12.98322,12.98322,0,0,0,1.60938-.0581,2.0289,2.0289,0,0,0,.64648-.231v.95313A1.93774,1.93774,0,0,1,61.31592,122.06689Zm-2.03711.07618a6.72443,6.72443,0,0,1,.34473,1.49023,3.44249,3.44249,0,0,0,.18164.79541.79587.79587,0,0,0,.29687.35986.80629.80629,0,0,0,1.042-.14941,1.18841,1.18841,0,0,0,.24317-.80811,1.88724,1.88724,0,0,0-.23047-.938,1.42266,1.42266,0,0,0-.63184-.603,2.19914,2.19914,0,0,0-.91211-.147Z"/>
    <path class="cls-2" d="M61.98,119.80713H56.59717v-.81592H57.353a1.927,1.927,0,0,1-.63672-.67432,1.89622,1.89622,0,0,1-.24024-.958,1.76611,1.76611,0,0,1,.248-.98047,1.333,1.333,0,0,1,.69434-.54,1.9312,1.9312,0,0,1-.94239-1.66211,1.63773,1.63773,0,0,1,.44336-1.23193,1.89545,1.89545,0,0,1,1.36524-.43067H61.98v.90723H58.58936a2.49348,2.49348,0,0,0-.78809.08887.76137.76137,0,0,0-.3877.32177.99908.99908,0,0,0-.14746.54737,1.27253,1.27253,0,0,0,.37793.94238,1.66106,1.66106,0,0,0,1.209.37549H61.98v.91211H58.48291a1.53537,1.53537,0,0,0-.91211.22314.84281.84281,0,0,0-.30469.72949,1.33124,1.33124,0,0,0,.20313.71241,1.14828,1.14828,0,0,0,.59277.47363,3.338,3.338,0,0,0,1.125.147H61.98Z"/>
    <path class="cls-2" d="M55.59912,111.15479h-1.0498v-.91211h1.0498Zm6.38086,0H56.59717v-.91211H61.98Z"/>
    <path class="cls-2" d="M61.98,108.874H54.54932v-.91211H61.98Z"/>
    <path class="cls-2" d="M55.59912,106.543h-1.0498v-.91211h1.0498Zm6.38086,0H56.59717v-.91211H61.98Z"/>
    <path class="cls-2" d="M60.24658,100.55713l.11621-.94238a2.2959,2.2959,0,0,1,1.28223.82617,2.79651,2.79651,0,0,1-.27051,3.41357,2.84421,2.84421,0,0,1-2.04.6919,2.97446,2.97446,0,0,1-2.1084-.69971,2.368,2.368,0,0,1-.75-1.81445,2.3027,2.3027,0,0,1,.73438-1.76368,2.92226,2.92226,0,0,1,2.06836-.68457c.05371,0,.13476.002.24316.00538v4.01416a2.06943,2.06943,0,0,0,1.3584-.502,1.49207,1.49207,0,0,0,.4707-1.125,1.39432,1.39432,0,0,0-.26269-.85644A1.75279,1.75279,0,0,0,60.24658,100.55713Zm-1.47461,2.9956v-3.00537a1.81756,1.81756,0,0,0-1.01855.34473,1.39722,1.39722,0,0,0-.52735,1.12988,1.44549,1.44549,0,0,0,.4209,1.05664A1.663,1.663,0,0,0,58.772,103.55273Z"/>
    <path class="cls-2" d="M60.37354,98.834l-.14258-.90234a1.261,1.261,0,0,0,.832-.42285,1.47658,1.47658,0,0,0,.28808-.9707,1.42443,1.42443,0,0,0-.25586-.93262.76376.76376,0,0,0-.60058-.3042.55438.55438,0,0,0-.48633.26855,4.00248,4.00248,0,0,0-.30957.93262,8.48193,8.48193,0,0,1-.4375,1.3916,1.33,1.33,0,0,1-1.23437.78809,1.38891,1.38891,0,0,1-.667-.165,1.47192,1.47192,0,0,1-.50879-.44824,1.90213,1.90213,0,0,1-.2666-.58057,2.76977,2.76977,0,0,1-.1084-.78808,3.12711,3.12711,0,0,1,.18164-1.11231,1.51477,1.51477,0,0,1,.49512-.707,1.92414,1.92414,0,0,1,.833-.31445l.12207.89209a.97545.97545,0,0,0-.64844.35205,1.28454,1.28454,0,0,0-.2334.82373,1.48924,1.48924,0,0,0,.208.897.604.604,0,0,0,.48633.269.5051.5051,0,0,0,.31934-.11181.80888.80888,0,0,0,.24316-.34961c.03418-.09131.11133-.35987.2334-.80567a11.25286,11.25286,0,0,1,.42285-1.35107,1.37249,1.37249,0,0,1,.47852-.60059,1.34078,1.34078,0,0,1,.78125-.21777,1.53146,1.53146,0,0,1,.85839.26611,1.72318,1.72318,0,0,1,.624.76758,2.807,2.807,0,0,1,.2207,1.13574,2.52476,2.52476,0,0,1-.43652,1.59864A2.02449,2.02449,0,0,1,60.37354,98.834Z"/>
  </g>
  <line class="cls-3" x1="80.79" y1="257.23001" x2="84.03" y2="257.23001"/>
  <line class="cls-4" x1="84.03" y1="257.23001" x2="328.03" y2="257.23001"/>
  <g class="cls-1">
    <path class="cls-5" d="M78.46484,256.44434a5.60518,5.60518,0,0,1-.3955,2.37793,1.94191,1.94191,0,0,1-1.83448,1.22656,1.8984,1.8984,0,0,1-1.74365-1.05957,5.33,5.33,0,0,1-.47119-2.54492,5.83284,5.83284,0,0,1,.38525-2.40723,1.93884,1.93884,0,0,1,1.83985-1.252,1.91448,1.91448,0,0,1,1.79883,1.17578A5.71287,5.71287,0,0,1,78.46484,256.44434Zm-.87695.51757v-1.31836a5.65758,5.65758,0,0,0-.1875-1.667,1.18334,1.18334,0,0,0-2.32617.00489,5.69634,5.69634,0,0,0-.1875,1.668q0,.208.00488.61817v.61328a7.40411,7.40411,0,0,0,.16748,1.82422q.29883,1.11474,1.17578,1.11523.87159,0,1.18067-1.07422A6.95,6.95,0,0,0,77.58789,256.96191Z"/>
  </g>
  <line class="cls-3" x1="80.79" y1="219.39" x2="84.03" y2="219.39"/>
  <line class="cls-4" x1="84.03" y1="219.39" x2="328.03" y2="219.39"/>
  <g class="cls-1">
    <path class="cls-5" d="M77.98828,221.99023q-.35961-.03075-.689-.03027H75.25146q-.32445,0-.68408.03027v-.31445h.38526q.7749,0,.88672-.21777a.62078.62078,0,0,0,.04589-.26856v-5.50976a3.09251,3.09251,0,0,1-1.3789.27441v-.32422a2.55744,2.55744,0,0,0,1.9209-.6748H76.478c.09814,0,.15722.02441.17724.07129a.67954.67954,0,0,1,.01514.19824v5.99414a.61138.61138,0,0,0,.041.25391q.07544.16845.59277.20312.071.00587.68408,0Z"/>
  </g>
  <line class="cls-3" x1="80.79" y1="181.56" x2="84.03" y2="181.56"/>
  <line class="cls-4" x1="84.03" y1="181.56" x2="328.03" y2="181.56"/>
  <g class="cls-1">
    <path class="cls-5" d="M78.34814,182.31543l-.28857,1.835H74.13623v-.09082a.44868.44868,0,0,1,.12207-.30469L76.28564,181.5a3.61361,3.61361,0,0,0,1.1045-2.33691,1.95943,1.95943,0,0,0-.34961-1.18555,1.23761,1.23761,0,0,0-1.06446-.53809,1.40042,1.40042,0,0,0-.87646.29688,1.63666,1.63666,0,0,0-.55273.76758h.08642q.613,0,.61328.55273a.54917.54917,0,0,1-.15722.39551.52065.52065,0,0,1-.39014.16211q-.5625,0-.563-.58789a1.79706,1.79706,0,0,1,.58838-1.35352,1.9524,1.9524,0,0,1,1.38867-.55762,2.31633,2.31633,0,0,1,1.5708.54786,1.89333,1.89333,0,0,1,.66406,1.5,1.98675,1.98675,0,0,1-.39013,1.15527,7.36962,7.36962,0,0,1-.83643.918l-2.16894,2.10351H77.061a1.91476,1.91476,0,0,0,.79052-.084,2.573,2.573,0,0,0,.23291-.94043Z"/>
  </g>
  <line class="cls-3" x1="80.79" y1="143.73" x2="84.03" y2="143.73"/>
  <line class="cls-4" x1="84.03" y1="143.73" x2="328.03" y2="143.73"/>
  <g class="cls-1">
    <path class="cls-5" d="M78.43457,144.51514a1.865,1.865,0,0,1-.69434,1.46972,2.32281,2.32281,0,0,1-1.55127.56348,2.5306,2.5306,0,0,1-1.42919-.416,1.42809,1.42809,0,0,1-.70948-1.23632.61914.61914,0,0,1,.16211-.44141.56286.56286,0,0,1,.43067-.17188.57907.57907,0,0,1,.59326.59278.54859.54859,0,0,1-.17481.4209.60959.60959,0,0,1-.42822.16211h-.10156a1.5485,1.5485,0,0,0,.70459.60449,2.18564,2.18564,0,0,0,.91748.19629,1.01493,1.01493,0,0,0,.94775-.58789,2.46386,2.46386,0,0,0,.24317-1.15625,2.37353,2.37353,0,0,0-.2583-1.18555,1.06523,1.06523,0,0,0-.99854-.57324h-.54736c-.11182,0-.16748-.03809-.16748-.11621,0-.07422.081-.1211.24316-.1416.11182-.00391.22168-.00879.32959-.01563a1.11356,1.11356,0,0,0,.9375-.54687,2.26246,2.26246,0,0,0,.29395-1.207,1.34446,1.34446,0,0,0-.24317-.83593.90836.90836,0,0,0-.77051-.3545,1.55052,1.55052,0,0,0-1.40869.65821q.65406-.00879.65381.53222a.52721.52721,0,0,1-.14941.38575.5143.5143,0,0,1-.38282.15234.51528.51528,0,0,1-.54248-.543,1.24378,1.24378,0,0,1,.62354-1.0791,2.22475,2.22475,0,0,1,1.25195-.36035,2.35069,2.35069,0,0,1,1.28711.36035,1.25076,1.25076,0,0,1,.65918,1.09473,1.75334,1.75334,0,0,1-.44092,1.16015,2.24051,2.24051,0,0,1-1.04443.7002,2.3131,2.3131,0,0,1,1.23193.65332A1.74725,1.74725,0,0,1,78.43457,144.51514Z"/>
  </g>
  <line class="cls-3" x1="80.79" y1="105.89" x2="84.03" y2="105.89"/>
  <line class="cls-4" x1="84.03" y1="105.89" x2="328.03" y2="105.89"/>
  <g class="cls-1">
    <path class="cls-5" d="M78.58154,106.74121h-1.0542v.99414a.55105.55105,0,0,0,.04541.24317q.096.19189.9834.1875v.32421q-.42114-.03075-.71972-.03027H76.39209q-.28417,0-.70459.03027v-.31933h.32422q.55737,0,.65869-.19238a.52416.52416,0,0,0,.0459-.24317v-.99414h-2.813V106.417L77.147,101.46a.24451.24451,0,0,1,.21289-.126c.08448,0,.13672.02832.15723.08594a.95351.95351,0,0,1,.01025.19238V106.417h1.0542Zm-1.80468-.32422v-3.92871L74.2002,106.417Z"/>
  </g>
  <line class="cls-3" x1="80.79" y1="68.06" x2="84.03" y2="68.06"/>
  <line class="cls-4" x1="84.03" y1="68.06" x2="328.03" y2="68.06"/>
  <g class="cls-1">
    <path class="cls-5" d="M78.34814,68.521a2.30933,2.30933,0,0,1-.67138,1.66015,2.178,2.178,0,0,1-1.6294.69727,1.823,1.823,0,0,1-1.34814-.57324,1.87242,1.87242,0,0,1-.563-1.3584q0-.5625.51221-.5625a.52523.52523,0,0,1,.37744.14746.48723.48723,0,0,1,.15478.36914.49729.49729,0,0,1-.15478.373.52285.52285,0,0,1-.37744.14941.584.584,0,0,1-.17237-.02539,1.6212,1.6212,0,0,0,.58545.85156,1.53879,1.53879,0,0,0,.96534.33985,1.25131,1.25131,0,0,0,1.13525-.68946,3.08353,3.08353,0,0,0,.24853-1.44922,3.49824,3.49824,0,0,0-.1875-1.32812.96559.96559,0,0,0-.90234-.67969,1.54234,1.54234,0,0,0-.811.21777,1.90659,1.90659,0,0,0-.45606.40625c-.12842.14454-.206.21778-.23291.21778q-.14721,0-.147-.208V63.7876q0-.17286.10107-.17285a.43441.43441,0,0,1,.13184.03125,4.25023,4.25023,0,0,0,1.40918.30859,3.66567,3.66567,0,0,0,1.4292-.31445.27381.27381,0,0,1,.09131-.02539q.10107,0,.10107.11718c0,.05371-.06055.14844-.18213.28321a2.38039,2.38039,0,0,1-1.855.8164,3.10819,3.10819,0,0,1-.89209-.13672v2.05274a1.84677,1.84677,0,0,1,1.33789-.53711,1.80088,1.80088,0,0,1,1.46485.72949A2.46268,2.46268,0,0,1,78.34814,68.521Z"/>
  </g>
  <line class="cls-3" x1="80.79" y1="30.22" x2="84.03" y2="30.22"/>
  <line class="cls-4" x1="84.03" y1="30.22" x2="328.03" y2="30.22"/>
  <g class="cls-1">
    <path class="cls-5" d="M78.43945,30.66553a2.45329,2.45329,0,0,1-.59814,1.65722,1.9993,1.9993,0,0,1-1.57617.72559,1.86943,1.86943,0,0,1-1.78907-1.252,5.62288,5.62288,0,0,1-.42089-2.32129,4.6612,4.6612,0,0,1,.38037-1.90137,3.11374,3.11374,0,0,1,1.2417-1.4541,2.23639,2.23639,0,0,1,1.16064-.335,1.51135,1.51135,0,0,1,.93262.27441,1.01227,1.01227,0,0,1,.41064.85645.53017.53017,0,0,1-.13427.37011.45618.45618,0,0,1-.35254.14649.46571.46571,0,0,1-.34717-.1416.47982.47982,0,0,1-.13916-.34961q0-.49659.57763-.47168a1.03537,1.03537,0,0,0-.92724-.43067,1.43988,1.43988,0,0,0-.78565.23829q-1.06494.67382-1.06445,3.07617a1.40641,1.40641,0,0,1,1.31787-1.04395,1.91979,1.91979,0,0,1,1.53565.72461A2.44645,2.44645,0,0,1,78.43945,30.66553Zm-.94775.27441V30.4126a2.87593,2.87593,0,0,0-.19238-1.20606,1.03561,1.03561,0,0,0-.97852-.65429,1.09743,1.09743,0,0,0-1.0083.64355,2.51617,2.51617,0,0,0-.28906,1.23731,4.46536,4.46536,0,0,0,.19238,1.53027,1.29867,1.29867,0,0,0,.40576.55762,1.01614,1.01614,0,0,0,.64356.23828,1.09843,1.09843,0,0,0,1.04394-.68946A2.69212,2.69212,0,0,0,77.4917,30.93994Z"/>
  </g>
  <line class="cls-3" x1="117.24" y1="257.23001" x2="117.24" y2="260.47"/>
  <g class="cls-1">
    <path class="cls-5" d="M119.46484,266.82422a5.60518,5.60518,0,0,1-.3955,2.37793,1.94191,1.94191,0,0,1-1.83448,1.22656,1.89838,1.89838,0,0,1-1.74365-1.05957,5.33,5.33,0,0,1-.47119-2.54492,5.83284,5.83284,0,0,1,.38525-2.40723,1.93884,1.93884,0,0,1,1.83985-1.252,1.91449,1.91449,0,0,1,1.79883,1.17578A5.7129,5.7129,0,0,1,119.46484,266.82422Zm-.87695.51758v-1.31836a5.65753,5.65753,0,0,0-.1875-1.667,1.18334,1.18334,0,0,0-2.32617.00488,5.69637,5.69637,0,0,0-.1875,1.668q0,.208.00488.61816v.61328a7.40411,7.40411,0,0,0,.16748,1.82422q.29883,1.11475,1.17578,1.11524.87159,0,1.18067-1.07422A6.95007,6.95007,0,0,0,118.58789,267.3418Z"/>
  </g>
  <line class="cls-3" x1="149.67" y1="257.23001" x2="149.67" y2="260.47"/>
  <g class="cls-1">
    <path class="cls-5" d="M151.41846,270.2002q-.35963-.03076-.689-.03028h-2.04785q-.32447,0-.68408.03028v-.31446h.38525q.7749,0,.88672-.21777a.62076.62076,0,0,0,.0459-.26856v-5.50976a3.09241,3.09241,0,0,1-1.37891.27441v-.32422a2.55741,2.55741,0,0,0,1.9209-.6748h.05078c.09815,0,.15723.02441.17725.07129a.68.68,0,0,1,.01514.19824v5.99414a.61153.61153,0,0,0,.041.25391q.07543.16845.59278.20312.071.00587.68408,0Z"/>
  </g>
  <line class="cls-3" x1="182.10001" y1="257.23001" x2="182.10001" y2="260.47"/>
  <g class="cls-1">
    <path class="cls-5" d="M184.208,268.36523l-.28809,1.835h-3.92383v-.09082a.44865.44865,0,0,1,.12207-.30469l2.02735-2.25489a3.61355,3.61355,0,0,0,1.10449-2.33691,1.95945,1.95945,0,0,0-.34961-1.18555,1.23762,1.23762,0,0,0-1.06445-.53808,1.39911,1.39911,0,0,0-.876.29687,1.63349,1.63349,0,0,0-.55273.76758h.08593q.61377,0,.61329.55274a.54916.54916,0,0,1-.15723.3955.51882.51882,0,0,1-.38965.16211c-.375,0-.56348-.19629-.56348-.58789a1.79578,1.79578,0,0,1,.58887-1.35351,1.95236,1.95236,0,0,1,1.38867-.55762,2.31427,2.31427,0,0,1,1.57032.54785,1.89186,1.89186,0,0,1,.66406,1.5,1.98947,1.98947,0,0,1-.38965,1.15527,7.42211,7.42211,0,0,1-.83691.918l-2.16895,2.10352h2.1084a1.91591,1.91591,0,0,0,.791-.084,2.57809,2.57809,0,0,0,.23243-.94043Z"/>
  </g>
  <line class="cls-3" x1="214.53" y1="257.23001" x2="214.53" y2="260.47"/>
  <g class="cls-1">
    <path class="cls-5" d="M216.72461,268.39551a1.86507,1.86507,0,0,1-.69434,1.46972,2.32155,2.32155,0,0,1-1.55078.56348,2.53119,2.53119,0,0,1-1.42969-.416,1.42867,1.42867,0,0,1-.709-1.23633.617.617,0,0,1,.16211-.44141.56283.56283,0,0,1,.43066-.17187.579.579,0,0,1,.59278.59277.54689.54689,0,0,1-.17481.4209.60757.60757,0,0,1-.42773.16211h-.10156a1.54711,1.54711,0,0,0,.7041.60449,2.18624,2.18624,0,0,0,.918.19629,1.01425,1.01425,0,0,0,.94726-.58789,2.46386,2.46386,0,0,0,.24317-1.15625A2.37889,2.37889,0,0,0,215.377,267.21a1.06548,1.06548,0,0,0-.999-.57324h-.54688c-.1123,0-.168-.03809-.168-.11621,0-.07422.081-.1211.24316-.1416.1123-.00391.22168-.00879.33008-.01563a1.11359,1.11359,0,0,0,.9375-.54687,2.26244,2.26244,0,0,0,.29394-1.207,1.34449,1.34449,0,0,0-.24316-.83594.909.909,0,0,0-.77051-.35449,1.55192,1.55192,0,0,0-1.40918.6582q.6548-.00879.6543.53223a.52719.52719,0,0,1-.14942.38574.515.515,0,0,1-.38281.15234.516.516,0,0,1-.543-.543,1.24325,1.24325,0,0,1,.624-1.0791A2.22357,2.22357,0,0,1,214.5,263.165a2.35186,2.35186,0,0,1,1.28711.36035,1.25078,1.25078,0,0,1,.65918,1.09473,1.75388,1.75388,0,0,1-.44141,1.16015,2.23906,2.23906,0,0,1-1.04394.7002,2.31173,2.31173,0,0,1,1.23144.65332A1.74726,1.74726,0,0,1,216.72461,268.39551Z"/>
  </g>
  <line class="cls-3" x1="246.96001" y1="257.23001" x2="246.96001" y2="260.47"/>
  <g class="cls-1">
    <path class="cls-5" d="M249.292,268.45117H248.2373v.99414a.55053.55053,0,0,0,.0459.24317q.09522.19189.9834.1875v.32422c-.28125-.02051-.52051-.03028-.71972-.03028h-1.44434q-.28417,0-.70508.03028v-.31934h.32422q.55811,0,.65918-.19238a.5305.5305,0,0,0,.0459-.24317v-.99414h-2.81348V268.127l3.24414-4.957a.24393.24393,0,0,1,.21289-.126c.084,0,.13672.02832.15723.08593a.97185.97185,0,0,1,.00976.19239V268.127H249.292Zm-1.80469-.32422v-3.92871l-2.57714,3.92871Z"/>
  </g>
  <line class="cls-3" x1="279.39001" y1="257.23001" x2="279.39001" y2="260.47"/>
  <g class="cls-1">
    <path class="cls-5" d="M281.48828,268.07129a2.3078,2.3078,0,0,1-.67187,1.66016,2.17619,2.17619,0,0,1-1.62891.69726,1.82271,1.82271,0,0,1-1.34766-.57324,1.87289,1.87289,0,0,1-.56347-1.3584q0-.5625.51269-.5625a.52491.52491,0,0,1,.377.14746.48513.48513,0,0,1,.15429.36914.49511.49511,0,0,1-.15429.37305.52254.52254,0,0,1-.377.14941.58241.58241,0,0,1-.17285-.02539,1.6258,1.6258,0,0,0,.585.85156,1.542,1.542,0,0,0,.96582.33985,1.25305,1.25305,0,0,0,1.13574-.68945,3.09092,3.09092,0,0,0,.248-1.44922,3.49827,3.49827,0,0,0-.1875-1.32813.96561.96561,0,0,0-.90234-.67969,1.54067,1.54067,0,0,0-.81055.21778,1.89988,1.89988,0,0,0-.457.40625c-.12793.14453-.20508.21777-.23242.21777q-.14649,0-.14649-.208v-3.28906c0-.11523.03321-.17285.10059-.17285a.43756.43756,0,0,1,.13184.03125,4.25023,4.25023,0,0,0,1.40917.30859,3.6616,3.6616,0,0,0,1.42872-.31445.27872.27872,0,0,1,.09179-.02539c.06739,0,.10157.03906.10157.11719,0,.05371-.06055.14843-.18262.2832a2.38006,2.38006,0,0,1-1.85449.81641,3.11393,3.11393,0,0,1-.89258-.13672v2.05273a1.84756,1.84756,0,0,1,1.33789-.53711,1.80087,1.80087,0,0,1,1.46484.72949A2.46547,2.46547,0,0,1,281.48828,268.07129Z"/>
  </g>
  <line class="cls-3" x1="311.82001" y1="257.23001" x2="311.82001" y2="260.47"/>
  <g class="cls-1">
    <path class="cls-5" d="M314.00977,268.0459a2.45128,2.45128,0,0,1-.59864,1.65723,1.99929,1.99929,0,0,1-1.57617.72558,1.86986,1.86986,0,0,1-1.78906-1.252,5.63086,5.63086,0,0,1-.4209-2.32129,4.65335,4.65335,0,0,1,.38086-1.90137,3.11557,3.11557,0,0,1,1.24121-1.4541,2.23679,2.23679,0,0,1,1.16113-.335,1.51238,1.51238,0,0,1,.93262.27441,1.01189,1.01189,0,0,1,.41016.85645.5321.5321,0,0,1-.13379.37012.45619.45619,0,0,1-.35254.14648.4668.4668,0,0,1-.34766-.1416.47945.47945,0,0,1-.13867-.34961q0-.49659.57715-.47168a1.035,1.035,0,0,0-.92676-.43066,1.44023,1.44023,0,0,0-.78613.23828q-1.06494.67383-1.06445,3.07617a1.40736,1.40736,0,0,1,1.31835-1.04395,1.91816,1.91816,0,0,1,1.53516.72461A2.44436,2.44436,0,0,1,314.00977,268.0459Zm-.94825.27441V267.793a2.86787,2.86787,0,0,0-.19238-1.20606,1.03559,1.03559,0,0,0-.97851-.65429,1.09676,1.09676,0,0,0-1.00782.64355,2.51085,2.51085,0,0,0-.28906,1.23731,4.45338,4.45338,0,0,0,.19238,1.53027,1.29768,1.29768,0,0,0,.40528.55762,1.01711,1.01711,0,0,0,.64355.23828,1.098,1.098,0,0,0,1.04395-.68945A2.68434,2.68434,0,0,0,313.06152,268.32031Z"/>
  </g>
  <rect class="cls-6" x="101.92" y="143.73" width="32.43001" height="113.49998"/>
  <rect class="cls-6" x="134.35001" y="30.22" width="32.42999" height="227"/>
  <rect class="cls-6" x="166.78" y="105.89" width="32.42999" height="151.33998"/>
  <rect class="cls-6" x="199.21001" y="181.56" width="32.43001" height="75.66998"/>
  <rect class="cls-6" x="231.64" y="143.73" width="32.43001" height="113.49998"/>
  <rect class="cls-6" x="295.60501" y="219.39" width="32.42999" height="37.83"/>
  <path class="cls-3" d="M84,30.23v227H328"/>
</svg>
